{"title":"The.Sinner.SEASON.2.S02.COMPLETE.720p.WEB-DL.2CH.x265.HEVC-PSA","magnet":"magnet:?xt=urn:btih:d5b3792b5a0a4477f99eca3e527a9fc52f0239a9&dn=The.Sinner.SEASON.2.S02.COMPLETE.720p.WEB-DL.2CH.x265.HEVC-PSA&tr=udp%3A%2F%2Ftracker.leechers-paradise.org%3A6969&tr=udp%3A%2F%2Fzer0day.ch%3A1337&tr=udp%3A%2F%2Fopen.demonii.com%3A1337&tr=udp%3A%2F%2Ftracker.coppersurfer.tk%3A6969&tr=udp%3A%2F%2Fexodus.desync.com%3A6969","uploader":"Sentinela","categoryP":"video","categoryS":"hd___tv_shows","size":"1603103088","seeders":"2","leechers":"7","description":"The Sinner - Complete Season 2 - Episodes 1-8\r\n\r\nEpisode 1:\r\n\r\nFormat                         : Matroska\r\nFormat version                 : Version 4 / Version 2\r\nFile size                      : 196 MiB\r\nDuration                       : 46 min 1 s\r\nOverall bit rate               : 597 kb/s\r\nMovie name                     : PSArips.com | The.Sinner.S02E01.720p.WEBRip.2CH.x265.HEVC-PSA\r\nEncoded date                   : UTC 2018-08-03 17:35:27\r\nWriting application            : mkvmerge v25.0.0 (&apos;Prog Noir&apos;) 64-bit\r\nWriting library                : libebml v1.3.6 + libmatroska v1.4.9\r\n\r\nVideo\r\nID                             : 1\r\nFormat                         : HEVC\r\nFormat/Info                    : High Efficiency Video Coding\r\nFormat profile                 : Main@L3.1@Main\r\nCodec ID                       : V_MPEGH/ISO/HEVC\r\nDuration                       : 46 min 1 s\r\nBit rate                       : 526 kb/s\r\nWidth                          : 1 280 pixels\r\nHeight                         : 720 pixels\r\nDisplay aspect ratio           : 16:9\r\nFrame rate mode                : Constant\r\nFrame rate                     : 23.976 (24000/1001) FPS\r\nColor space                    : YUV\r\nChroma subsampling             : 4:2:0\r\nBit depth                      : 8 bits\r\nBits/(Pixel*Frame)             : 0.024\r\nStream size                    : 173 MiB (88%)\r\nDefault                        : Yes\r\nForced                         : No\r\n\r\nAudio\r\nID                             : 2\r\nFormat                         : AAC\r\nFormat/Info                    : Advanced Audio Codec\r\nFormat profile                 : HE-AAC / LC\r\nCodec ID                       : A_AAC\r\nDuration                       : 46 min 0 s\r\nBit rate                       : 68.9 kb/s\r\nChannel(s)                     : 2 channels\r\nChannel positions              : Front: L R\r\nSampling rate                  : 48.0 kHz / 24.0 kHz\r\nFrame rate                     : 23.438 FPS (1024 SPF)\r\nCompression mode               : Lossy\r\nDelay relative to video        : 23 ms\r\nStream size                    : 22.7 MiB (12%)\r\nLanguage                       : English\r\nDefault                        : Yes\r\nForced                         : No\r\n\r\nText\r\nID                             : 3\r\nFormat                         : UTF-8\r\nCodec ID                       : S_TEXT/UTF8\r\nCodec ID/Info                  : UTF-8 Plain Text\r\nDuration                       : 45 min 45 s\r\nBit rate                       : 59 b/s\r\nCount of elements              : 837\r\nStream size                    : 19.9 KiB (0%)\r\nLanguage                       : English\r\nDefault                        : Yes\r\nForced                         : No","last_updated":"2018-10-11T12:41:36.112Z","parsed":{"xt":"urn:btih:d5b3792b5a0a4477f99eca3e527a9fc52f0239a9","dn":"The.Sinner.SEASON.2.S02.COMPLETE.720p.WEB-DL.2CH.x265.HEVC-PSA","tr":["udp://exodus.desync.com:6969","udp://open.demonii.com:1337","udp://tracker.coppersurfer.tk:6969","udp://tracker.leechers-paradise.org:6969","udp://zer0day.ch:1337"],"infoHash":"d5b3792b5a0a4477f99eca3e527a9fc52f0239a9","infoHashBuffer":{"type":"Buffer","data":[213,179,121,43,90,10,68,119,249,158,202,62,82,122,159,197,47,2,57,169]},"name":"The.Sinner.SEASON.2.S02.COMPLETE.720p.WEB-DL.2CH.x265.HEVC-PSA","announce":["udp://exodus.desync.com:6969","udp://open.demonii.com:1337","udp://tracker.coppersurfer.tk:6969","udp://tracker.leechers-paradise.org:6969","udp://zer0day.ch:1337"],"urlList":[]}}